Coordinates
version=1
nRows=20
nColumns=38
inDegrees=no

Units are S.I. units (second, meters, Newtons, ...)
If the header above contains a line with 'inDegrees', this indicates whether rotational values are in degrees (yes) or radians (no).

endheader
time	pelvis_tilt	pelvis_list	pelvis_rotation	pelvis_tx	pelvis_ty	pelvis_tz	hip_flexion_r	hip_adduction_r	hip_rotation_r	knee_angle_r	ankle_angle_r	subtalar_angle_r	mtp_angle_r	hip_flexion_l	hip_adduction_l	hip_rotation_l	knee_angle_l	ankle_angle_l	subtalar_angle_l	mtp_angle_l	lumbar_extension	lumbar_bending	lumbar_rotation	arm_flex_r	arm_add_r	arm_rot_r	elbow_flex_r	pro_sup_r	wrist_flex_r	wrist_dev_r	arm_flex_l	arm_add_l	arm_rot_l	elbow_flex_l	pro_sup_l	wrist_flex_l	wrist_dev_l
1.96	0.365794	1.42876	-1.92389	0.786546	-0.613095	1.03763	-0.30094	-0.129646	-0.054862	0.671665	-0.338586	0	0	0.147998	-0.0570342	-0.269107	0.430482	-0.174029	0	0	-0.41457	-0.0788006	0.274983	0.0675844	-0.486114	0.905889	0.66811	0.575278	0	0	0.207622	-0.324487	0.878739	0.497897	0.551894	0	0
1.97	0.29452	1.32596	-1.97345	0.779546	-0.605807	1.04466	-0.319155	-0.199143	0.0984033	0.782977	-0.33578	0	0	0.0158022	-0.0379355	-0.412963	0.406952	-0.201508	0	0	-0.536139	-0.132221	0.363418	0.0742342	-0.608081	0.893074	0.832608	0.535328	0	0	0.238633	-0.323939	0.905308	0.556607	0.519977	0	0
1.98	0.401868	1.42296	-1.95889	0.793541	-0.634936	1.03941	-0.271729	-0.148458	-0.0461368	0.749486	-0.410791	0	0	0.138424	-0.0544972	-0.280323	0.461284	-0.177237	0	0	-0.417797	-0.0863247	0.274015	0.0612796	-0.48294	0.897179	0.663855	0.570899	0	0	0.210638	-0.322879	0.896277	0.492498	0.537222	0	0
1.99	0.43241	1.42484	-1.98804	0.797063	-0.645786	1.04029	-0.247829	-0.157623	-0.0405859	0.792938	-0.443223	0	0	0.137215	-0.0513748	-0.287186	0.473373	-0.173379	0	0	-0.411721	-0.0898182	0.267885	0.0672651	-0.473285	0.909371	0.645309	0.580541	0	0	0.206195	-0.320377	0.888375	0.485528	0.542322	0	0
2	0.445662	1.42285	-2.00001	0.800613	-0.656277	1.04189	-0.228081	-0.165769	-0.0352326	0.834055	-0.48741	0	0	0.128279	-0.0481292	-0.29812	0.481204	-0.170388	0	0	-0.412568	-0.0918382	0.262255	0.0722474	-0.469664	0.918683	0.63656	0.584452	0	0	0.202825	-0.317927	0.878824	0.481997	0.548441	0	0
2.01	0.444031	1.41834	-1.99718	0.804251	-0.66647	1.04395	-0.211261	-0.172429	-0.0289128	0.873939	-0.526786	0	0	0.112675	-0.0443226	-0.310459	0.483456	-0.167669	0	0	-0.417835	-0.092264	0.257652	0.0749317	-0.471325	0.922378	0.636721	0.58343	0	0	0.201169	-0.315227	0.872037	0.480042	0.55241	0	0
2.02	0.376588	1.31617	-2.04239	0.797367	-0.659625	1.0505	-0.218753	-0.236776	0.112759	0.985483	-0.525284	0	0	-0.024179	-0.00527188	-0.451606	0.441298	-0.189675	0	0	-0.532415	-0.149036	0.33975	0.075223	-0.595959	0.902957	0.812725	0.536461	0	0	0.236011	-0.323385	0.920233	0.547598	0.504993	0	0
2.03	0.380033	1.31563	-2.04157	0.801414	-0.669741	1.05203	-0.196055	-0.238318	0.117122	1.02597	-0.550421	0	0	-0.0376309	0.00206309	-0.45848	0.437411	-0.185804	0	0	-0.532388	-0.146643	0.335566	0.0742707	-0.598889	0.902779	0.814595	0.535516	0	0	0.237834	-0.321396	0.92856	0.544832	0.497927	0	0
2.04	0.389972	1.39865	-1.93964	0.81545	-0.694937	1.05116	-0.16448	-0.181826	-0.00644168	0.99245	-0.617066	0	0	0.0441095	-0.031702	-0.347179	0.464052	-0.163739	0	0	-0.446493	-0.0845718	0.256691	0.0672525	-0.501923	0.906223	0.677431	0.563266	0	0	0.217366	-0.30995	0.918032	0.480897	0.510956	0	0
2.05	0.282375	1.40741	-1.83784	0.814266	-0.705132	1.05162	-0.134011	-0.147743	0.0266232	1.03359	-0.638694	0	0	0.0291496	-0.0418124	-0.368139	0.445519	-0.149251	0	0	-0.436366	-0.0690709	0.265	0.0723936	-0.495643	0.918429	0.667251	0.573768	0	0	0.21213	-0.313681	0.912219	0.482732	0.514711	0	0
2.06	0.371214	1.40518	-1.91822	0.822034	-0.713218	1.05366	-0.105474	-0.17485	0.017544	1.07119	-0.657888	0	0	0.0253353	-0.0301407	-0.356829	0.458995	-0.150646	0	0	-0.438924	-0.0756936	0.249018	0.0773439	-0.504403	0.921702	0.67079	0.576155	0	0	0.214191	-0.305204	0.909979	0.476847	0.514896	0	0
2.07	0.365142	1.40809	-1.90998	0.825157	-0.721894	1.05483	-0.0768952	-0.170181	0.0272324	1.1052	-0.669648	0	0	0.0166396	-0.029077	-0.356661	0.4543	-0.149362	0	0	-0.437834	-0.0714598	0.243977	0.0812027	-0.509576	0.924386	0.676204	0.577583	0	0	0.213887	-0.303749	0.905187	0.477128	0.514685	0	0
2.08	0.357075	1.40998	-1.9007	0.827978	-0.730376	1.05614	-0.0497607	-0.164322	0.0379533	1.13747	-0.660175	0	0	0.00558413	-0.0287595	-0.358289	0.445374	-0.150083	0	0	-0.438566	-0.0679373	0.239652	0.0855118	-0.515238	0.926883	0.682995	0.578362	0	0	0.214048	-0.30333	0.900545	0.479293	0.514151	0	0
2.09	0.343714	1.41042	-1.88617	0.830647	-0.738855	1.05753	-0.0250751	-0.157416	0.0480701	1.16872	-0.620126	0	0	-0.00629499	-0.0293362	-0.359393	0.438874	-0.151501	0	0	-0.440856	-0.0640902	0.235512	0.0893041	-0.521487	0.928292	0.691419	0.577859	0	0	0.213676	-0.303647	0.894881	0.48322	0.515029	0	0
2.1	0.32654	1.41021	-1.86665	0.833301	-0.747547	1.059	-0.00295817	-0.149927	0.05435	1.19481	-0.58591	0	0	-0.0186362	-0.0287567	-0.352862	0.433148	-0.150484	0	0	-0.442901	-0.05974	0.231789	0.092346	-0.526139	0.929776	0.697081	0.578605	0	0	0.214458	-0.303744	0.894166	0.485403	0.514028	0	0
2.11	0.307154	1.41028	-1.84439	0.836047	-0.756267	1.06034	0.0190934	-0.142436	0.0596927	1.21673	-0.556438	0	0	-0.0291801	-0.0325142	-0.361192	0.434423	-0.149841	0	0	-0.444195	-0.0546057	0.227805	0.0947178	-0.530613	0.930094	0.702503	0.579042	0	0	0.21508	-0.303469	0.894238	0.486897	0.512208	0	0
2.12	0.293675	1.41038	-1.82746	0.838797	-0.764914	1.06176	0.0412496	-0.136142	0.0650986	1.23399	-0.527293	0	0	-0.0422653	-0.0329341	-0.365893	0.42839	-0.149918	0	0	-0.445982	-0.0504066	0.223101	0.0974176	-0.53418	0.930123	0.70702	0.579526	0	0	0.216307	-0.302898	0.894429	0.48757	0.509828	0	0
2.13	0.277503	1.41005	-1.80732	0.841612	-0.773635	1.06317	0.0612619	-0.12948	0.069185	1.2452	-0.500377	0	0	-0.0562215	-0.0329809	-0.369576	0.42248	-0.149268	0	0	-0.447995	-0.0455286	0.218156	0.0999987	-0.537444	0.930396	0.710856	0.580541	0	0	0.217537	-0.301913	0.894972	0.487524	0.507471	0	0
2.14	0.257263	1.40853	-1.78473	0.844192	-0.782147	1.06457	0.0794	-0.121657	0.0750712	1.25206	-0.471514	0	0	-0.0713636	-0.0330341	-0.372901	0.416949	-0.147841	0	0	-0.451371	-0.040486	0.214636	0.102348	-0.54228	0.929483	0.717146	0.580753	0	0	0.219017	-0.300714	0.895543	0.487966	0.504595	0	0
2.15	0.234369	1.40723	-1.75904	0.846812	-0.79067	1.06588	0.0961434	-0.113212	0.0792211	1.25388	-0.442265	0	0	-0.0862915	-0.0337269	-0.374071	0.410789	-0.146452	0	0	-0.454699	-0.0347338	0.211463	0.10448	-0.547336	0.928449	0.723385	0.580858	0	0	0.220751	-0.299047	0.89635	0.487988	0.501909	0	0
